# xmcd CD database file
#
# Track frame offsets:
#	150
#	27297
#	51655
#	80307
#	101262
#	120805
#	147387
#	178332
#
# Disc length: 2775 seconds
#
# Revision: 0
# Processed by: cddbd v1.5.2PL0 Copyright (c) Steve Scherf et al.
# Submitted via: CDex 1.70beta2
#
DISCID=650ad508
DTITLE=James Carter - Gardenias For Lady Day
DYEAR=2003
DGENRE=Jazz
TTITLE0=James Carter - Gloria
TTITLE1=James Carter - Sunset
TTITLE2=James Carter - (I Wonder) Where Our Love Has Gone
TTITLE3=James Carter - Lowdown Groove
TTITLE4=James Carter - Strange Fruit
TTITLE5=James Carter - A Flower Is A Lovesome Thing
TTITLE6=James Carter - Indian Summer
TTITLE7=James Carter - More Than You Know
EXTD=YEAR: 2003
EXTT0=
EXTT1=
EXTT2=
EXTT3=
EXTT4=
EXTT5=
EXTT6=
EXTT7=
PLAYORDER=
